%TF.GenerationSoftware,KiCad,Pcbnew,(6.0.5)*%
%TF.CreationDate,2022-05-06T01:30:31+03:00*%
%TF.ProjectId,main,6d61696e-2e6b-4696-9361-645f70636258,v1.0.0*%
%TF.SameCoordinates,Original*%
%TF.FileFunction,Soldermask,Top*%
%TF.FilePolarity,Negative*%
%FSLAX46Y46*%
G04 Gerber Fmt 4.6, Leading zero omitted, Abs format (unit mm)*
G04 Created by KiCad (PCBNEW (6.0.5)) date 2022-05-06 01:30:31*
%MOMM*%
%LPD*%
G01*
G04 APERTURE LIST*
G04 Aperture macros list*
%AMRoundRect*
0 Rectangle with rounded corners*
0 $1 Rounding radius*
0 $2 $3 $4 $5 $6 $7 $8 $9 X,Y pos of 4 corners*
0 Add a 4 corners polygon primitive as box body*
4,1,4,$2,$3,$4,$5,$6,$7,$8,$9,$2,$3,0*
0 Add four circle primitives for the rounded corners*
1,1,$1+$1,$2,$3*
1,1,$1+$1,$4,$5*
1,1,$1+$1,$6,$7*
1,1,$1+$1,$8,$9*
0 Add four rect primitives between the rounded corners*
20,1,$1+$1,$2,$3,$4,$5,0*
20,1,$1+$1,$4,$5,$6,$7,0*
20,1,$1+$1,$6,$7,$8,$9,0*
20,1,$1+$1,$8,$9,$2,$3,0*%
G04 Aperture macros list end*
%ADD10C,3.529000*%
%ADD11C,1.801800*%
%ADD12C,3.100000*%
%ADD13RoundRect,0.050000X-1.300000X-1.300000X1.300000X-1.300000X1.300000X1.300000X-1.300000X1.300000X0*%
%ADD14C,2.132000*%
%ADD15RoundRect,0.050000X-1.505993X-1.054507X1.054507X-1.505993X1.505993X1.054507X-1.054507X1.505993X0*%
%ADD16RoundRect,0.050000X-1.666227X-0.776974X0.776974X-1.666227X1.666227X0.776974X-0.776974X1.666227X0*%
%ADD17RoundRect,0.050000X-1.775833X-0.475833X0.475833X-1.775833X1.775833X0.475833X-0.475833X1.775833X0*%
%ADD18RoundRect,0.050000X-1.824774X-0.224054X0.224054X-1.824774X1.824774X0.224054X-0.224054X1.824774X0*%
%ADD19RoundRect,0.050000X-1.835958X0.096218X-0.096218X-1.835958X1.835958X-0.096218X0.096218X1.835958X0*%
%ADD20C,1.852600*%
%ADD21RoundRect,0.050000X-0.108010X1.234560X-1.234560X-0.108010X0.108010X-1.234560X1.234560X0.108010X0*%
%ADD22C,1.000000*%
%ADD23RoundRect,0.050000X-0.750206X-0.349558X-0.213975X-0.799509X0.750206X0.349558X0.213975X0.799509X0*%
%ADD24RoundRect,0.050000X-0.640137X0.014976X0.125907X-0.627812X0.640137X-0.014976X-0.125907X0.627812X0*%
%ADD25RoundRect,0.050000X-0.450000X-0.850000X0.450000X-0.850000X0.450000X0.850000X-0.450000X0.850000X0*%
G04 APERTURE END LIST*
D10*
%TO.C,S1*%
X184220000Y-140774872D03*
D11*
X189720000Y-140774872D03*
X178720000Y-140774872D03*
D12*
X189220000Y-137024872D03*
X184220000Y-134824872D03*
X179220000Y-137024872D03*
X184220000Y-134824872D03*
D13*
X187495000Y-134824872D03*
X175945000Y-137024872D03*
%TD*%
D10*
%TO.C,S2*%
X184220000Y-140774872D03*
D11*
X178720000Y-140774872D03*
X189720000Y-140774872D03*
D14*
X179220000Y-144574872D03*
X184220000Y-146674872D03*
X189220000Y-144574872D03*
X184220000Y-146674872D03*
%TD*%
D10*
%TO.C,S3*%
X184220000Y-123774872D03*
D11*
X189720000Y-123774872D03*
X178720000Y-123774872D03*
D12*
X189220000Y-120024872D03*
X184220000Y-117824872D03*
X179220000Y-120024872D03*
X184220000Y-117824872D03*
D13*
X187495000Y-117824872D03*
X175945000Y-120024872D03*
%TD*%
D10*
%TO.C,S4*%
X184220000Y-123774872D03*
D11*
X178720000Y-123774872D03*
X189720000Y-123774872D03*
D14*
X179220000Y-127574872D03*
X184220000Y-129674872D03*
X189220000Y-127574872D03*
X184220000Y-129674872D03*
%TD*%
D10*
%TO.C,S5*%
X203220000Y-137774872D03*
D11*
X208720000Y-137774872D03*
X197720000Y-137774872D03*
D12*
X208220000Y-134024872D03*
X203220000Y-131824872D03*
X198220000Y-134024872D03*
X203220000Y-131824872D03*
D13*
X206495000Y-131824872D03*
X194945000Y-134024872D03*
%TD*%
D10*
%TO.C,S6*%
X203220000Y-137774872D03*
D11*
X197720000Y-137774872D03*
X208720000Y-137774872D03*
D14*
X198220000Y-141574872D03*
X203220000Y-143674872D03*
X208220000Y-141574872D03*
X203220000Y-143674872D03*
%TD*%
D10*
%TO.C,S7*%
X203220000Y-120774872D03*
D11*
X208720000Y-120774872D03*
X197720000Y-120774872D03*
D12*
X208220000Y-117024872D03*
X203220000Y-114824872D03*
X198220000Y-117024872D03*
X203220000Y-114824872D03*
D13*
X206495000Y-114824872D03*
X194945000Y-117024872D03*
%TD*%
D10*
%TO.C,S8*%
X203220000Y-120774872D03*
D11*
X197720000Y-120774872D03*
X208720000Y-120774872D03*
D14*
X198220000Y-124574872D03*
X203220000Y-126674872D03*
X208220000Y-124574872D03*
X203220000Y-126674872D03*
%TD*%
D10*
%TO.C,S9*%
X203220000Y-103774872D03*
D11*
X208720000Y-103774872D03*
X197720000Y-103774872D03*
D12*
X208220000Y-100024872D03*
X203220000Y-97824872D03*
X198220000Y-100024872D03*
X203220000Y-97824872D03*
D13*
X206495000Y-97824872D03*
X194945000Y-100024872D03*
%TD*%
D10*
%TO.C,S10*%
X203220000Y-103774872D03*
D11*
X197720000Y-103774872D03*
X208720000Y-103774872D03*
D14*
X198220000Y-107574872D03*
X203220000Y-109674872D03*
X208220000Y-107574872D03*
X203220000Y-109674872D03*
%TD*%
D10*
%TO.C,S11*%
X223824723Y-130002756D03*
D11*
X229241166Y-130957821D03*
X218408280Y-129047691D03*
D12*
X229399942Y-127177968D03*
X224857930Y-124143150D03*
X219551865Y-125441486D03*
X224857930Y-124143150D03*
D15*
X228083175Y-124711848D03*
X216326620Y-124872788D03*
%TD*%
D10*
%TO.C,S12*%
X223824723Y-130002756D03*
D11*
X218408280Y-129047691D03*
X229241166Y-130957821D03*
D14*
X218240821Y-132876785D03*
X222800199Y-135813122D03*
X228088899Y-134613266D03*
X222800199Y-135813122D03*
%TD*%
D10*
%TO.C,S13*%
X226776742Y-113261024D03*
D11*
X232193185Y-114216089D03*
X221360299Y-112305959D03*
D12*
X232351961Y-110436236D03*
X227809949Y-107401418D03*
X222503884Y-108699754D03*
X227809949Y-107401418D03*
D15*
X231035194Y-107970116D03*
X219278639Y-108131056D03*
%TD*%
D10*
%TO.C,S14*%
X226776742Y-113261024D03*
D11*
X221360299Y-112305959D03*
X232193185Y-114216089D03*
D14*
X221192840Y-116135053D03*
X225752218Y-119071390D03*
X231040918Y-117871534D03*
X225752218Y-119071390D03*
%TD*%
D10*
%TO.C,S15*%
X229728761Y-96519292D03*
D11*
X235145204Y-97474357D03*
X224312318Y-95564227D03*
D12*
X235303980Y-93694504D03*
X230761968Y-90659686D03*
X225455903Y-91958022D03*
X230761968Y-90659686D03*
D15*
X233987213Y-91228384D03*
X222230658Y-91389324D03*
%TD*%
D10*
%TO.C,S16*%
X229728761Y-96519292D03*
D11*
X224312318Y-95564227D03*
X235145204Y-97474357D03*
D14*
X224144859Y-99393321D03*
X228704237Y-102329658D03*
X233992937Y-101129802D03*
X228704237Y-102329658D03*
%TD*%
D10*
%TO.C,S17*%
X244945083Y-128881111D03*
D11*
X250113392Y-130762222D03*
X239776774Y-127000000D03*
D12*
X250926122Y-127067364D03*
X246980103Y-123289940D03*
X241529195Y-123647163D03*
X246980103Y-123289940D03*
D16*
X250057596Y-124410056D03*
X238451702Y-122527047D03*
%TD*%
D10*
%TO.C,S18*%
X244945083Y-128881111D03*
D11*
X239776774Y-127000000D03*
X250113392Y-130762222D03*
D14*
X238946943Y-130741842D03*
X242927164Y-134425297D03*
X248343870Y-134162044D03*
X242927164Y-134425297D03*
%TD*%
D10*
%TO.C,S19*%
X250759425Y-112906336D03*
D11*
X255927734Y-114787447D03*
X245591116Y-111025225D03*
D12*
X256740464Y-111092589D03*
X252794445Y-107315165D03*
X247343537Y-107672388D03*
X252794445Y-107315165D03*
D16*
X255871938Y-108435281D03*
X244266044Y-106552272D03*
%TD*%
D10*
%TO.C,S20*%
X250759425Y-112906336D03*
D11*
X245591116Y-111025225D03*
X255927734Y-114787447D03*
D14*
X244761285Y-114767067D03*
X248741506Y-118450522D03*
X254158212Y-118187269D03*
X248741506Y-118450522D03*
%TD*%
D10*
%TO.C,S21*%
X256573767Y-96931562D03*
D11*
X261742076Y-98812673D03*
X251405458Y-95050451D03*
D12*
X262554806Y-95117815D03*
X258608787Y-91340391D03*
X253157879Y-91697614D03*
X258608787Y-91340391D03*
D16*
X261686280Y-92460507D03*
X250080386Y-90577498D03*
%TD*%
D10*
%TO.C,S22*%
X256573767Y-96931562D03*
D11*
X251405458Y-95050451D03*
X261742076Y-98812673D03*
D14*
X250575627Y-98792293D03*
X254555848Y-102475748D03*
X259972554Y-102212495D03*
X254555848Y-102475748D03*
%TD*%
D10*
%TO.C,S23*%
X262519147Y-140840945D03*
D11*
X267282287Y-143590945D03*
X257756007Y-138090945D03*
D12*
X268724274Y-140093350D03*
X265494147Y-135688094D03*
X260064020Y-135093350D03*
X265494147Y-135688094D03*
D17*
X268330380Y-137325594D03*
X257227787Y-133455850D03*
%TD*%
D10*
%TO.C,S24*%
X262519147Y-140840945D03*
D11*
X257756007Y-138090945D03*
X267282287Y-143590945D03*
D14*
X256289020Y-141631842D03*
X259569147Y-145950495D03*
X264949274Y-146631842D03*
X259569147Y-145950495D03*
%TD*%
D17*
%TO.C,S25*%
X265727787Y-118733418D03*
X276830380Y-122603162D03*
D12*
X273994147Y-120965662D03*
X268564020Y-120370918D03*
X273994147Y-120965662D03*
X277224274Y-125370918D03*
D11*
X266256007Y-123368513D03*
X275782287Y-128868513D03*
D10*
X271019147Y-126118513D03*
%TD*%
D14*
%TO.C,S26*%
X268069147Y-131228063D03*
X273449274Y-131909410D03*
X268069147Y-131228063D03*
X264789020Y-126909410D03*
D11*
X275782287Y-128868513D03*
X266256007Y-123368513D03*
D10*
X271019147Y-126118513D03*
%TD*%
D17*
%TO.C,S27*%
X274227787Y-104010986D03*
X285330380Y-107880730D03*
D12*
X282494147Y-106243230D03*
X277064020Y-105648486D03*
X282494147Y-106243230D03*
X285724274Y-110648486D03*
D11*
X274756007Y-108646081D03*
X284282287Y-114146081D03*
D10*
X279519147Y-111396081D03*
%TD*%
D14*
%TO.C,S28*%
X276569147Y-116505631D03*
X281949274Y-117186978D03*
X276569147Y-116505631D03*
X273289020Y-112186978D03*
D11*
X284282287Y-114146081D03*
X274756007Y-108646081D03*
D10*
X279519147Y-111396081D03*
%TD*%
%TO.C,S29*%
X245349199Y-154856582D03*
D11*
X249683258Y-158242720D03*
X241015140Y-151470444D03*
D12*
X251597983Y-154979849D03*
X249012385Y-150167918D03*
X243717876Y-148823234D03*
X249012385Y-150167918D03*
D18*
X251593120Y-152184209D03*
X241137141Y-146806943D03*
%TD*%
D10*
%TO.C,S30*%
X245349199Y-154856582D03*
D11*
X241015140Y-151470444D03*
X249683258Y-158242720D03*
D14*
X239069632Y-154772715D03*
X241716796Y-159505845D03*
X246949739Y-160929330D03*
X241716796Y-159505845D03*
%TD*%
D10*
%TO.C,S31*%
X261844936Y-170507239D03*
D11*
X265525154Y-174594536D03*
X258164718Y-166419942D03*
D12*
X267977382Y-171713723D03*
X266266648Y-166525912D03*
X261286076Y-164282275D03*
X266266648Y-166525912D03*
D19*
X268458050Y-168959711D03*
X259094673Y-161848476D03*
%TD*%
D10*
%TO.C,S32*%
X261844936Y-170507239D03*
D11*
X258164718Y-166419942D03*
X265525154Y-174594536D03*
D14*
X255675333Y-169334211D03*
X257460382Y-174455110D03*
X262366639Y-176765659D03*
X257460382Y-174455110D03*
%TD*%
D20*
%TO.C,MCU1*%
X281337516Y-162919682D03*
X282970196Y-160973930D03*
X284602877Y-159028177D03*
X286235557Y-157082424D03*
X287868238Y-155136671D03*
X289500918Y-153190918D03*
X291133599Y-151245165D03*
X292766279Y-149299412D03*
X294398960Y-147353659D03*
X296031641Y-145407906D03*
X297664321Y-143462154D03*
X299297002Y-141516401D03*
X269662998Y-153123599D03*
X271295679Y-151177846D03*
X272928359Y-149232094D03*
X274561040Y-147286341D03*
X276193721Y-145340588D03*
X277826401Y-143394835D03*
X279459082Y-141449082D03*
X281091762Y-139503329D03*
X282724443Y-137557576D03*
X284357123Y-135611823D03*
X285989804Y-133666070D03*
D21*
X287622484Y-131720318D03*
%TD*%
D22*
%TO.C,*%
X226993501Y-147012302D03*
X229291635Y-148940665D03*
D23*
X227550274Y-145181973D03*
X229848408Y-147110336D03*
X230997474Y-148074518D03*
D24*
X224639440Y-146472958D03*
X230231564Y-151165307D03*
X231652125Y-149472349D03*
X226060000Y-144780000D03*
D22*
X226993501Y-147012302D03*
X229291635Y-148940665D03*
%TD*%
D25*
%TO.C,*%
X220140000Y-144780000D03*
X216740000Y-144780000D03*
%TD*%
M02*
