%TF.GenerationSoftware,KiCad,Pcbnew,(6.0.5)*%
%TF.CreationDate,2022-05-06T01:30:31+03:00*%
%TF.ProjectId,main,6d61696e-2e6b-4696-9361-645f70636258,v1.0.0*%
%TF.SameCoordinates,Original*%
%TF.FileFunction,Copper,L2,Bot*%
%TF.FilePolarity,Positive*%
%FSLAX46Y46*%
G04 Gerber Fmt 4.6, Leading zero omitted, Abs format (unit mm)*
G04 Created by KiCad (PCBNEW (6.0.5)) date 2022-05-06 01:30:31*
%MOMM*%
%LPD*%
G01*
G04 APERTURE LIST*
G04 Aperture macros list*
%AMRotRect*
0 Rectangle, with rotation*
0 The origin of the aperture is its center*
0 $1 length*
0 $2 width*
0 $3 Rotation angle, in degrees counterclockwise*
0 Add horizontal line*
21,1,$1,$2,0,0,$3*%
G04 Aperture macros list end*
%TA.AperFunction,SMDPad,CuDef*%
%ADD10R,2.600000X2.600000*%
%TD*%
%TA.AperFunction,ComponentPad*%
%ADD11C,2.032000*%
%TD*%
%TA.AperFunction,SMDPad,CuDef*%
%ADD12RotRect,2.600000X2.600000X350.000000*%
%TD*%
%TA.AperFunction,SMDPad,CuDef*%
%ADD13RotRect,2.600000X2.600000X340.000000*%
%TD*%
%TA.AperFunction,SMDPad,CuDef*%
%ADD14RotRect,2.600000X2.600000X330.000000*%
%TD*%
%TA.AperFunction,SMDPad,CuDef*%
%ADD15RotRect,2.600000X2.600000X322.000000*%
%TD*%
%TA.AperFunction,SMDPad,CuDef*%
%ADD16RotRect,2.600000X2.600000X312.000000*%
%TD*%
%TA.AperFunction,ComponentPad*%
%ADD17C,1.752600*%
%TD*%
%TA.AperFunction,ComponentPad*%
%ADD18RotRect,1.752600X1.752600X230.000000*%
%TD*%
%TA.AperFunction,SMDPad,CuDef*%
%ADD19RotRect,0.700000X1.500000X320.000000*%
%TD*%
%TA.AperFunction,SMDPad,CuDef*%
%ADD20RotRect,1.000000X0.800000X320.000000*%
%TD*%
%TA.AperFunction,SMDPad,CuDef*%
%ADD21R,0.900000X1.700000*%
%TD*%
%TA.AperFunction,Conductor*%
%ADD22C,0.250000*%
%TD*%
G04 APERTURE END LIST*
D10*
%TO.P,S1,1*%
%TO.N,P21*%
X180945000Y-134824872D03*
%TO.P,S1,2*%
%TO.N,GND*%
X192495000Y-137024872D03*
%TD*%
D11*
%TO.P,S2,1*%
%TO.N,P21*%
X179220000Y-144574872D03*
%TO.P,S2,2*%
%TO.N,GND*%
X184220000Y-146674872D03*
%TO.P,S2,1*%
%TO.N,P21*%
X189220000Y-144574872D03*
%TO.P,S2,2*%
%TO.N,GND*%
X184220000Y-146674872D03*
%TD*%
D10*
%TO.P,S3,1*%
%TO.N,P20*%
X180945000Y-117824872D03*
%TO.P,S3,2*%
%TO.N,GND*%
X192495000Y-120024872D03*
%TD*%
D11*
%TO.P,S4,1*%
%TO.N,P20*%
X179220000Y-127574872D03*
%TO.P,S4,2*%
%TO.N,GND*%
X184220000Y-129674872D03*
%TO.P,S4,1*%
%TO.N,P20*%
X189220000Y-127574872D03*
%TO.P,S4,2*%
%TO.N,GND*%
X184220000Y-129674872D03*
%TD*%
D10*
%TO.P,S5,1*%
%TO.N,P19*%
X199945000Y-131824872D03*
%TO.P,S5,2*%
%TO.N,GND*%
X211495000Y-134024872D03*
%TD*%
D11*
%TO.P,S6,1*%
%TO.N,P19*%
X198220000Y-141574872D03*
%TO.P,S6,2*%
%TO.N,GND*%
X203220000Y-143674872D03*
%TO.P,S6,1*%
%TO.N,P19*%
X208220000Y-141574872D03*
%TO.P,S6,2*%
%TO.N,GND*%
X203220000Y-143674872D03*
%TD*%
D10*
%TO.P,S7,1*%
%TO.N,P18*%
X199945000Y-114824872D03*
%TO.P,S7,2*%
%TO.N,GND*%
X211495000Y-117024872D03*
%TD*%
D11*
%TO.P,S8,1*%
%TO.N,P18*%
X198220000Y-124574872D03*
%TO.P,S8,2*%
%TO.N,GND*%
X203220000Y-126674872D03*
%TO.P,S8,1*%
%TO.N,P18*%
X208220000Y-124574872D03*
%TO.P,S8,2*%
%TO.N,GND*%
X203220000Y-126674872D03*
%TD*%
D10*
%TO.P,S9,1*%
%TO.N,P15*%
X199945000Y-97824872D03*
%TO.P,S9,2*%
%TO.N,GND*%
X211495000Y-100024872D03*
%TD*%
D11*
%TO.P,S10,1*%
%TO.N,P15*%
X198220000Y-107574872D03*
%TO.P,S10,2*%
%TO.N,GND*%
X203220000Y-109674872D03*
%TO.P,S10,1*%
%TO.N,P15*%
X208220000Y-107574872D03*
%TO.P,S10,2*%
%TO.N,GND*%
X203220000Y-109674872D03*
%TD*%
D12*
%TO.P,S11,1*%
%TO.N,P14*%
X221632684Y-123574452D03*
%TO.P,S11,2*%
%TO.N,GND*%
X232625188Y-127746666D03*
%TD*%
D11*
%TO.P,S12,1*%
%TO.N,P14*%
X218240821Y-132876785D03*
%TO.P,S12,2*%
%TO.N,GND*%
X222800199Y-135813122D03*
%TO.P,S12,1*%
%TO.N,P14*%
X228088899Y-134613266D03*
%TO.P,S12,2*%
%TO.N,GND*%
X222800199Y-135813122D03*
%TD*%
D12*
%TO.P,S13,1*%
%TO.N,P16*%
X224584703Y-106832720D03*
%TO.P,S13,2*%
%TO.N,GND*%
X235577207Y-111004934D03*
%TD*%
D11*
%TO.P,S14,1*%
%TO.N,P16*%
X221192840Y-116135053D03*
%TO.P,S14,2*%
%TO.N,GND*%
X225752218Y-119071390D03*
%TO.P,S14,1*%
%TO.N,P16*%
X231040918Y-117871534D03*
%TO.P,S14,2*%
%TO.N,GND*%
X225752218Y-119071390D03*
%TD*%
D12*
%TO.P,S15,1*%
%TO.N,P10*%
X227536722Y-90090988D03*
%TO.P,S15,2*%
%TO.N,GND*%
X238529226Y-94263202D03*
%TD*%
D11*
%TO.P,S16,1*%
%TO.N,P10*%
X224144859Y-99393321D03*
%TO.P,S16,2*%
%TO.N,GND*%
X228704237Y-102329658D03*
%TO.P,S16,1*%
%TO.N,P10*%
X233992937Y-101129802D03*
%TO.P,S16,2*%
%TO.N,GND*%
X228704237Y-102329658D03*
%TD*%
D13*
%TO.P,S17,1*%
%TO.N,P14*%
X243902610Y-122169824D03*
%TO.P,S17,2*%
%TO.N,GND*%
X254003615Y-128187480D03*
%TD*%
D11*
%TO.P,S18,1*%
%TO.N,P14*%
X238946943Y-130741842D03*
%TO.P,S18,2*%
%TO.N,GND*%
X242927164Y-134425297D03*
%TO.P,S18,1*%
%TO.N,P14*%
X248343870Y-134162044D03*
%TO.P,S18,2*%
%TO.N,GND*%
X242927164Y-134425297D03*
%TD*%
D13*
%TO.P,S19,1*%
%TO.N,P16*%
X249716952Y-106195049D03*
%TO.P,S19,2*%
%TO.N,GND*%
X259817957Y-112212705D03*
%TD*%
D11*
%TO.P,S20,1*%
%TO.N,P16*%
X244761285Y-114767067D03*
%TO.P,S20,2*%
%TO.N,GND*%
X248741506Y-118450522D03*
%TO.P,S20,1*%
%TO.N,P16*%
X254158212Y-118187269D03*
%TO.P,S20,2*%
%TO.N,GND*%
X248741506Y-118450522D03*
%TD*%
D13*
%TO.P,S21,1*%
%TO.N,P10*%
X255531294Y-90220275D03*
%TO.P,S21,2*%
%TO.N,GND*%
X265632299Y-96237931D03*
%TD*%
D11*
%TO.P,S22,1*%
%TO.N,P10*%
X250575627Y-98792293D03*
%TO.P,S22,2*%
%TO.N,GND*%
X254555848Y-102475748D03*
%TO.P,S22,1*%
%TO.N,P10*%
X259972554Y-102212495D03*
%TO.P,S22,2*%
%TO.N,GND*%
X254555848Y-102475748D03*
%TD*%
D14*
%TO.P,S23,1*%
%TO.N,P4*%
X262657914Y-134050594D03*
%TO.P,S23,2*%
%TO.N,GND*%
X271560507Y-141730850D03*
%TD*%
D11*
%TO.P,S24,1*%
%TO.N,P4*%
X256289020Y-141631842D03*
%TO.P,S24,2*%
%TO.N,GND*%
X259569147Y-145950495D03*
%TO.P,S24,1*%
%TO.N,P4*%
X264949274Y-146631842D03*
%TO.P,S24,2*%
%TO.N,GND*%
X259569147Y-145950495D03*
%TD*%
D14*
%TO.P,S25,2*%
%TO.N,GND*%
X280060507Y-127008418D03*
%TO.P,S25,1*%
%TO.N,P5*%
X271157914Y-119328162D03*
%TD*%
D11*
%TO.P,S26,2*%
%TO.N,GND*%
X268069147Y-131228063D03*
%TO.P,S26,1*%
%TO.N,P5*%
X273449274Y-131909410D03*
%TO.P,S26,2*%
%TO.N,GND*%
X268069147Y-131228063D03*
%TO.P,S26,1*%
%TO.N,P5*%
X264789020Y-126909410D03*
%TD*%
D14*
%TO.P,S27,2*%
%TO.N,GND*%
X288560507Y-112285986D03*
%TO.P,S27,1*%
%TO.N,P6*%
X279657914Y-104605730D03*
%TD*%
D11*
%TO.P,S28,2*%
%TO.N,GND*%
X276569147Y-116505631D03*
%TO.P,S28,1*%
%TO.N,P6*%
X281949274Y-117186978D03*
%TO.P,S28,2*%
%TO.N,GND*%
X276569147Y-116505631D03*
%TO.P,S28,1*%
%TO.N,P6*%
X273289020Y-112186978D03*
%TD*%
D15*
%TO.P,S29,1*%
%TO.N,P4*%
X246431650Y-148151627D03*
%TO.P,S29,2*%
%TO.N,GND*%
X254178719Y-156996140D03*
%TD*%
D11*
%TO.P,S30,1*%
%TO.N,P4*%
X239069632Y-154772715D03*
%TO.P,S30,2*%
%TO.N,GND*%
X241716796Y-159505845D03*
%TO.P,S30,1*%
%TO.N,P4*%
X246949739Y-160929330D03*
%TO.P,S30,2*%
%TO.N,GND*%
X241716796Y-159505845D03*
%TD*%
D16*
%TO.P,S31,1*%
%TO.N,P4*%
X264075245Y-164092113D03*
%TO.P,S31,2*%
%TO.N,GND*%
X270168785Y-174147523D03*
%TD*%
D11*
%TO.P,S32,1*%
%TO.N,P4*%
X255675333Y-169334211D03*
%TO.P,S32,2*%
%TO.N,GND*%
X257460382Y-174455110D03*
%TO.P,S32,1*%
%TO.N,P4*%
X262366639Y-176765659D03*
%TO.P,S32,2*%
%TO.N,GND*%
X257460382Y-174455110D03*
%TD*%
D17*
%TO.P,MCU1,24*%
%TO.N,P9*%
X281337516Y-162919682D03*
%TO.P,MCU1,23*%
%TO.N,P8*%
X282970196Y-160973930D03*
%TO.P,MCU1,22*%
%TO.N,P7*%
X284602877Y-159028177D03*
%TO.P,MCU1,21*%
%TO.N,P6*%
X286235557Y-157082424D03*
%TO.P,MCU1,20*%
%TO.N,P5*%
X287868238Y-155136671D03*
%TO.P,MCU1,19*%
%TO.N,P4*%
X289500918Y-153190918D03*
%TO.P,MCU1,18*%
%TO.N,P3*%
X291133599Y-151245165D03*
%TO.P,MCU1,17*%
%TO.N,P2*%
X292766279Y-149299412D03*
%TO.P,MCU1,16*%
%TO.N,GND*%
X294398960Y-147353659D03*
%TO.P,MCU1,15*%
X296031641Y-145407906D03*
%TO.P,MCU1,14*%
%TO.N,P0*%
X297664321Y-143462154D03*
%TO.P,MCU1,13*%
%TO.N,P1*%
X299297002Y-141516401D03*
%TO.P,MCU1,12*%
%TO.N,P10*%
X269662998Y-153123599D03*
%TO.P,MCU1,11*%
%TO.N,P16*%
X271295679Y-151177846D03*
%TO.P,MCU1,10*%
%TO.N,P14*%
X272928359Y-149232094D03*
%TO.P,MCU1,9*%
%TO.N,P15*%
X274561040Y-147286341D03*
%TO.P,MCU1,8*%
%TO.N,P18*%
X276193721Y-145340588D03*
%TO.P,MCU1,7*%
%TO.N,P19*%
X277826401Y-143394835D03*
%TO.P,MCU1,6*%
%TO.N,P20*%
X279459082Y-141449082D03*
%TO.P,MCU1,5*%
%TO.N,P21*%
X281091762Y-139503329D03*
%TO.P,MCU1,4*%
%TO.N,VCC*%
X282724443Y-137557576D03*
%TO.P,MCU1,3*%
%TO.N,RST*%
X284357123Y-135611823D03*
%TO.P,MCU1,2*%
%TO.N,GND*%
X285989804Y-133666070D03*
D18*
%TO.P,MCU1,1*%
%TO.N,RAW*%
X287622484Y-131720318D03*
%TD*%
D19*
%TO.P,,1*%
%TO.N,pos*%
X230997474Y-148074518D03*
%TO.P,,2*%
%TO.N,RAW*%
X228699341Y-146146155D03*
%TO.P,,3*%
%TO.N,N/C*%
X227550274Y-145181973D03*
D20*
%TO.P,,*%
%TO.N,*%
X230231564Y-151165307D03*
X224639440Y-146472958D03*
X226060000Y-144780000D03*
X231652125Y-149472349D03*
%TD*%
D21*
%TO.P,,1*%
%TO.N,RST*%
X216740000Y-144780000D03*
%TO.P,,2*%
%TO.N,GND*%
X220140000Y-144780000D03*
%TD*%
D22*
%TO.N,GND*%
X257460382Y-174455110D02*
X261810312Y-178805040D01*
X261810312Y-178805040D02*
X265511268Y-178805040D01*
X265511268Y-178805040D02*
X270168785Y-174147523D01*
X276569147Y-116505631D02*
X278591005Y-118527489D01*
X278591005Y-118527489D02*
X282504533Y-118527489D01*
X282504533Y-118527489D02*
X288560507Y-112471515D01*
X288560507Y-112471515D02*
X288560507Y-112285986D01*
X268069147Y-131228063D02*
X270452176Y-133611092D01*
X280060507Y-128509529D02*
X280060507Y-127008418D01*
X270452176Y-133611092D02*
X274958944Y-133611092D01*
X274958944Y-133611092D02*
X280060507Y-128509529D01*
X241716796Y-159505845D02*
X244480792Y-162269841D01*
X244480792Y-162269841D02*
X248905018Y-162269841D01*
X248905018Y-162269841D02*
X254178719Y-156996140D01*
X257796328Y-156996140D02*
X268265103Y-146527366D01*
X268265103Y-146527366D02*
X271560507Y-143231961D01*
X259569147Y-145950495D02*
X261711906Y-148093254D01*
X261711906Y-148093254D02*
X266699215Y-148093254D01*
X266699215Y-148093254D02*
X268265103Y-146527366D01*
X242927164Y-134425297D02*
X244004422Y-135502555D01*
X244004422Y-135502555D02*
X248899129Y-135502555D01*
X248899129Y-135502555D02*
X254003615Y-130398069D01*
X254003615Y-130398069D02*
X254003615Y-128187480D01*
X225752218Y-119071390D02*
X226768217Y-120087389D01*
X226768217Y-120087389D02*
X230720833Y-120087389D01*
X230720833Y-120087389D02*
X235577207Y-115231015D01*
X235577207Y-115231015D02*
X235577207Y-111004934D01*
X228704237Y-102329658D02*
X229720236Y-103345657D01*
X229720236Y-103345657D02*
X234285143Y-103345657D01*
X234285143Y-103345657D02*
X238529226Y-99101574D01*
X238529226Y-99101574D02*
X238529226Y-94263202D01*
X203220000Y-109674872D02*
X208015770Y-109674872D01*
X208015770Y-109674872D02*
X211495000Y-106195642D01*
X211495000Y-106195642D02*
X211495000Y-100024872D01*
X203220000Y-126674872D02*
X208015770Y-126674872D01*
X208015770Y-126674872D02*
X211495000Y-123195642D01*
X211495000Y-123195642D02*
X211495000Y-117024872D01*
X184220000Y-129674872D02*
X189015770Y-129674872D01*
X189015770Y-129674872D02*
X192495000Y-126195642D01*
X192495000Y-126195642D02*
X192495000Y-120024872D01*
X184220000Y-146674872D02*
X189015770Y-146674872D01*
X189015770Y-146674872D02*
X192495000Y-143195642D01*
X192495000Y-143195642D02*
X192495000Y-137024872D01*
X203220000Y-143674872D02*
X208015770Y-143674872D01*
X208015770Y-143674872D02*
X211495000Y-140195642D01*
X211495000Y-140195642D02*
X211495000Y-134024872D01*
X222800199Y-135813122D02*
X223816198Y-136829121D01*
X223816198Y-136829121D02*
X227889162Y-136829121D01*
X227889162Y-136829121D02*
X232625188Y-132093095D01*
X232625188Y-132093095D02*
X232625188Y-127746666D01*
X211495000Y-134024872D02*
X213283250Y-135813122D01*
X213283250Y-135813122D02*
X222800199Y-135813122D01*
X192495000Y-137024872D02*
X195334021Y-139863893D01*
X195334021Y-139863893D02*
X208363987Y-139863893D01*
X208363987Y-139863893D02*
X211495000Y-136732880D01*
X211495000Y-136732880D02*
X211495000Y-134024872D01*
X192495000Y-137024872D02*
X192495000Y-120024872D01*
X211495000Y-117024872D02*
X211495000Y-100024872D01*
X211495000Y-134024872D02*
X211495000Y-117024872D01*
X235577207Y-111004934D02*
X238529226Y-108052915D01*
X238529226Y-108052915D02*
X238529226Y-94263202D01*
X232625188Y-127746666D02*
X235577207Y-124794647D01*
X235577207Y-124794647D02*
X235577207Y-111004934D01*
X259817957Y-112212705D02*
X265632299Y-106398363D01*
X265632299Y-106398363D02*
X265632299Y-96237931D01*
X254003615Y-128187480D02*
X259817957Y-122373138D01*
X259817957Y-122373138D02*
X259817957Y-112212705D01*
X296031641Y-145407906D02*
X294398960Y-147040587D01*
X294398960Y-147040587D02*
X294398960Y-147353659D01*
X270168785Y-174147523D02*
X270168785Y-170031487D01*
X292846613Y-147353659D02*
X294398960Y-147353659D01*
X270168785Y-170031487D02*
X292846613Y-147353659D01*
X254178719Y-156996140D02*
X257796328Y-156996140D01*
X271560507Y-143231961D02*
X271560507Y-141730850D01*
X271560507Y-141730850D02*
X280060507Y-133230850D01*
X280060507Y-133230850D02*
X280060507Y-127008418D01*
X280060507Y-127008418D02*
X283289785Y-123779140D01*
X283289785Y-123779140D02*
X283289785Y-117556708D01*
X283289785Y-117556708D02*
X288560507Y-112285986D01*
X285989804Y-133666070D02*
X280060507Y-127736773D01*
X280060507Y-127736773D02*
X280060507Y-127008418D01*
%TD*%
M02*
