%TF.GenerationSoftware,KiCad,Pcbnew,(6.0.5)*%
%TF.CreationDate,2022-05-06T01:30:31+03:00*%
%TF.ProjectId,main,6d61696e-2e6b-4696-9361-645f70636258,v1.0.0*%
%TF.SameCoordinates,Original*%
%TF.FileFunction,Paste,Bot*%
%TF.FilePolarity,Positive*%
%FSLAX46Y46*%
G04 Gerber Fmt 4.6, Leading zero omitted, Abs format (unit mm)*
G04 Created by KiCad (PCBNEW (6.0.5)) date 2022-05-06 01:30:31*
%MOMM*%
%LPD*%
G01*
G04 APERTURE LIST*
G04 Aperture macros list*
%AMRotRect*
0 Rectangle, with rotation*
0 The origin of the aperture is its center*
0 $1 length*
0 $2 width*
0 $3 Rotation angle, in degrees counterclockwise*
0 Add horizontal line*
21,1,$1,$2,0,0,$3*%
G04 Aperture macros list end*
%ADD10R,2.600000X2.600000*%
%ADD11RotRect,2.600000X2.600000X350.000000*%
%ADD12RotRect,2.600000X2.600000X340.000000*%
%ADD13RotRect,2.600000X2.600000X330.000000*%
%ADD14RotRect,2.600000X2.600000X322.000000*%
%ADD15RotRect,2.600000X2.600000X312.000000*%
%ADD16RotRect,0.700000X1.500000X320.000000*%
%ADD17RotRect,1.000000X0.800000X320.000000*%
%ADD18R,0.900000X1.700000*%
G04 APERTURE END LIST*
D10*
%TO.C,S1*%
X180945000Y-134824872D03*
X192495000Y-137024872D03*
%TD*%
%TO.C,S3*%
X180945000Y-117824872D03*
X192495000Y-120024872D03*
%TD*%
%TO.C,S5*%
X199945000Y-131824872D03*
X211495000Y-134024872D03*
%TD*%
%TO.C,S7*%
X199945000Y-114824872D03*
X211495000Y-117024872D03*
%TD*%
%TO.C,S9*%
X199945000Y-97824872D03*
X211495000Y-100024872D03*
%TD*%
D11*
%TO.C,S11*%
X221632684Y-123574452D03*
X232625188Y-127746666D03*
%TD*%
%TO.C,S13*%
X224584703Y-106832720D03*
X235577207Y-111004934D03*
%TD*%
%TO.C,S15*%
X227536722Y-90090988D03*
X238529226Y-94263202D03*
%TD*%
D12*
%TO.C,S17*%
X243902610Y-122169824D03*
X254003615Y-128187480D03*
%TD*%
%TO.C,S19*%
X249716952Y-106195049D03*
X259817957Y-112212705D03*
%TD*%
%TO.C,S21*%
X255531294Y-90220275D03*
X265632299Y-96237931D03*
%TD*%
D13*
%TO.C,S23*%
X262657914Y-134050594D03*
X271560507Y-141730850D03*
%TD*%
%TO.C,S25*%
X280060507Y-127008418D03*
X271157914Y-119328162D03*
%TD*%
%TO.C,S27*%
X288560507Y-112285986D03*
X279657914Y-104605730D03*
%TD*%
D14*
%TO.C,S29*%
X246431650Y-148151627D03*
X254178719Y-156996140D03*
%TD*%
D15*
%TO.C,S31*%
X264075245Y-164092113D03*
X270168785Y-174147523D03*
%TD*%
D16*
%TO.C,*%
X230997474Y-148074518D03*
X228699341Y-146146155D03*
X227550274Y-145181973D03*
D17*
X230231564Y-151165307D03*
X224639440Y-146472958D03*
X226060000Y-144780000D03*
X231652125Y-149472349D03*
%TD*%
D18*
%TO.C,*%
X216740000Y-144780000D03*
X220140000Y-144780000D03*
%TD*%
M02*
