M48
; DRILL file {KiCad (6.0.5)} date Fri 06 May 2022 01:30:26 AM EEST
; FORMAT={-:-/ absolute / inch / decimal}
; #@! TF.CreationDate,2022-05-06T01:30:26+03:00
; #@! TF.GenerationSoftware,Kicad,Pcbnew,(6.0.5)
; #@! TF.FileFunction,Plated,1,2,PTH
FMAT,2
INCH
; #@! TA.AperFunction,Plated,PTH,ComponentDrill
T1C0.0430
; #@! TA.AperFunction,Plated,PTH,ComponentDrill
T2C0.0500
%
G90
G05
T1
X10.6167Y-6.0285
X10.6809Y-5.9519
X10.7452Y-5.8753
X10.8095Y-5.7987
X10.8738Y-5.7221
X10.938Y-5.6455
X11.0023Y-5.5689
X11.0666Y-5.4923
X11.0763Y-6.4142
X11.1309Y-5.4157
X11.1406Y-6.3376
X11.1952Y-5.339
X11.2048Y-6.261
X11.2594Y-5.2624
X11.2691Y-6.1843
X11.3237Y-5.1858
X11.3334Y-6.1077
X11.3977Y-6.0311
X11.462Y-5.9545
X11.5262Y-5.8779
X11.5905Y-5.8013
X11.6548Y-5.7247
X11.7191Y-5.6481
X11.7833Y-5.5715
T2
X7.0559Y-5.0226
X7.0559Y-5.6919
X7.2528Y-5.1053
X7.2528Y-5.1053
X7.2528Y-5.7746
X7.2528Y-5.7746
X7.4496Y-5.0226
X7.4496Y-5.6919
X7.8039Y-4.2352
X7.8039Y-4.9045
X7.8039Y-5.5738
X8.0008Y-4.3179
X8.0008Y-4.3179
X8.0008Y-4.9872
X8.0008Y-4.9872
X8.0008Y-5.6565
X8.0008Y-5.6565
X8.1976Y-4.2352
X8.1976Y-4.9045
X8.1976Y-5.5738
X8.5922Y-5.2314
X8.7084Y-4.5722
X8.7717Y-5.347
X8.7717Y-5.347
X8.8246Y-3.9131
X8.8879Y-4.6879
X8.8879Y-4.6879
X8.9799Y-5.2997
X9.0041Y-4.0287
X9.0041Y-4.0287
X9.0961Y-4.6406
X9.2123Y-3.9815
X9.4074Y-5.1473
X9.4122Y-6.0934
X9.5164Y-6.2798
X9.5164Y-6.2798
X9.5641Y-5.2923
X9.5641Y-5.2923
X9.6363Y-4.5184
X9.7224Y-6.3358
X9.7773Y-5.282
X9.793Y-4.6634
X9.793Y-4.6634
X9.8652Y-3.8895
X10.0062Y-4.653
X10.0219Y-4.0345
X10.0219Y-4.0345
X10.066Y-6.6667
X10.0901Y-5.5761
X10.1362Y-6.8683
X10.1362Y-6.8683
X10.2193Y-5.7461
X10.2193Y-5.7461
X10.2351Y-4.0241
X10.3294Y-6.9593
X10.4248Y-4.9964
X10.4311Y-5.7729
X10.5539Y-5.1665
X10.5539Y-5.1665
X10.7594Y-4.4168
X10.7657Y-5.1933
X10.8885Y-4.5868
X10.8885Y-4.5868
X11.1004Y-4.6137
T0
M30
