%TF.GenerationSoftware,KiCad,Pcbnew,(6.0.5)*%
%TF.CreationDate,2022-05-06T01:30:31+03:00*%
%TF.ProjectId,main,6d61696e-2e6b-4696-9361-645f70636258,v1.0.0*%
%TF.SameCoordinates,Original*%
%TF.FileFunction,Legend,Top*%
%TF.FilePolarity,Positive*%
%FSLAX46Y46*%
G04 Gerber Fmt 4.6, Leading zero omitted, Abs format (unit mm)*
G04 Created by KiCad (PCBNEW (6.0.5)) date 2022-05-06 01:30:31*
%MOMM*%
%LPD*%
G01*
G04 APERTURE LIST*
G04 Aperture macros list*
%AMRotRect*
0 Rectangle, with rotation*
0 The origin of the aperture is its center*
0 $1 length*
0 $2 width*
0 $3 Rotation angle, in degrees counterclockwise*
0 Add horizontal line*
21,1,$1,$2,0,0,$3*%
G04 Aperture macros list end*
%ADD10C,0.150000*%
%ADD11C,1.752600*%
%ADD12RotRect,1.752600X1.752600X230.000000*%
G04 APERTURE END LIST*
D10*
%TO.C,MCU1*%
X280154055Y-161454208D02*
X279639825Y-162067043D01*
X279406364Y-161871146D01*
X279372485Y-161792989D01*
X279367790Y-161739319D01*
X279387582Y-161656467D01*
X279461043Y-161568919D01*
X279539200Y-161535041D01*
X279592870Y-161530345D01*
X279675722Y-161550137D01*
X279909183Y-161746034D01*
X278910259Y-161454864D02*
X278851893Y-161405890D01*
X278818015Y-161327733D01*
X278813320Y-161274063D01*
X278833111Y-161191211D01*
X278901877Y-161049993D01*
X279024313Y-160904080D01*
X279151444Y-160811837D01*
X279229601Y-160777958D01*
X279283271Y-160773263D01*
X279366123Y-160793055D01*
X279424489Y-160842029D01*
X279458367Y-160920186D01*
X279463062Y-160973856D01*
X279443271Y-161056708D01*
X279374505Y-161197926D01*
X279252069Y-161343839D01*
X279124938Y-161436083D01*
X279046781Y-161469961D01*
X278993111Y-161474656D01*
X278910259Y-161454864D01*
X278928384Y-160425747D02*
X278811653Y-160327799D01*
X278728801Y-160308007D01*
X278675131Y-160312703D01*
X278543304Y-160351276D01*
X278416173Y-160443520D01*
X278220276Y-160676981D01*
X278200484Y-160759833D01*
X278205180Y-160813503D01*
X278239058Y-160891660D01*
X278355788Y-160989609D01*
X278438641Y-161009400D01*
X278492311Y-161004705D01*
X278570468Y-160970827D01*
X278692903Y-160824913D01*
X278712695Y-160742061D01*
X278707999Y-160688391D01*
X278674121Y-160610234D01*
X278557391Y-160512286D01*
X278474538Y-160492494D01*
X278420868Y-160497190D01*
X278342712Y-160531068D01*
X281786736Y-159508456D02*
X281272506Y-160121291D01*
X281039045Y-159925394D01*
X281005166Y-159847237D01*
X281000471Y-159793567D01*
X281020263Y-159710715D01*
X281093724Y-159623167D01*
X281171881Y-159589289D01*
X281225551Y-159584593D01*
X281308403Y-159604385D01*
X281541864Y-159800282D01*
X280542940Y-159509112D02*
X280484574Y-159460138D01*
X280450696Y-159381981D01*
X280446001Y-159328311D01*
X280465792Y-159245459D01*
X280534558Y-159104241D01*
X280656994Y-158958328D01*
X280784125Y-158866085D01*
X280862282Y-158832206D01*
X280915952Y-158827511D01*
X280998804Y-158847303D01*
X281057170Y-158896277D01*
X281091048Y-158974434D01*
X281095743Y-159028104D01*
X281075952Y-159110956D01*
X281007186Y-159252174D01*
X280884750Y-159398087D01*
X280757619Y-159490331D01*
X280679462Y-159524209D01*
X280625792Y-159528904D01*
X280542940Y-159509112D01*
X280208854Y-158781213D02*
X280242732Y-158859370D01*
X280247427Y-158913040D01*
X280227636Y-158995892D01*
X280203149Y-159025075D01*
X280124992Y-159058953D01*
X280071322Y-159063648D01*
X279988469Y-159043857D01*
X279871739Y-158945908D01*
X279837861Y-158867751D01*
X279833165Y-158814081D01*
X279852957Y-158731229D01*
X279877444Y-158702046D01*
X279955601Y-158668168D01*
X280009271Y-158663473D01*
X280092123Y-158683264D01*
X280208854Y-158781213D01*
X280291706Y-158801005D01*
X280345376Y-158796309D01*
X280423533Y-158762431D01*
X280521481Y-158645700D01*
X280541273Y-158562848D01*
X280536578Y-158509178D01*
X280502699Y-158431021D01*
X280385969Y-158333073D01*
X280303116Y-158313281D01*
X280249447Y-158317976D01*
X280171290Y-158351855D01*
X280073341Y-158468585D01*
X280053549Y-158551438D01*
X280058245Y-158605107D01*
X280092123Y-158683264D01*
X283419416Y-157562703D02*
X282905186Y-158175538D01*
X282671725Y-157979641D01*
X282637846Y-157901484D01*
X282633151Y-157847814D01*
X282652943Y-157764962D01*
X282726404Y-157677414D01*
X282804561Y-157643536D01*
X282858231Y-157638840D01*
X282941083Y-157658632D01*
X283174544Y-157854529D01*
X282175620Y-157563359D02*
X282117254Y-157514385D01*
X282083376Y-157436228D01*
X282078681Y-157382558D01*
X282098472Y-157299706D01*
X282167238Y-157158488D01*
X282289674Y-157012575D01*
X282416805Y-156920332D01*
X282494962Y-156886453D01*
X282548632Y-156881758D01*
X282631484Y-156901550D01*
X282689850Y-156950524D01*
X282723728Y-157028681D01*
X282728423Y-157082351D01*
X282708632Y-157165203D01*
X282639866Y-157306421D01*
X282517430Y-157452334D01*
X282390299Y-157544578D01*
X282312142Y-157578456D01*
X282258472Y-157583151D01*
X282175620Y-157563359D01*
X281767063Y-157220539D02*
X281358506Y-156877719D01*
X282135379Y-156485268D01*
X285052097Y-155616950D02*
X284537867Y-156229785D01*
X284304406Y-156033888D01*
X284270527Y-155955731D01*
X284265832Y-155902061D01*
X284285624Y-155819209D01*
X284359085Y-155731661D01*
X284437242Y-155697783D01*
X284490912Y-155693087D01*
X284573764Y-155712879D01*
X284807225Y-155908776D01*
X283808301Y-155617606D02*
X283749935Y-155568632D01*
X283716057Y-155490475D01*
X283711362Y-155436805D01*
X283731153Y-155353953D01*
X283799919Y-155212735D01*
X283922355Y-155066822D01*
X284049486Y-154974579D01*
X284127643Y-154940700D01*
X284181313Y-154936005D01*
X284264165Y-154955797D01*
X284322531Y-155004771D01*
X284356409Y-155082928D01*
X284361104Y-155136598D01*
X284341313Y-155219450D01*
X284272547Y-155360668D01*
X284150111Y-155506581D01*
X284022980Y-155598825D01*
X283944823Y-155632703D01*
X283891153Y-155637398D01*
X283808301Y-155617606D01*
X283078734Y-155005428D02*
X283195465Y-155103376D01*
X283278318Y-155123168D01*
X283331987Y-155118473D01*
X283463814Y-155079899D01*
X283590945Y-154987655D01*
X283786842Y-154754194D01*
X283806634Y-154671342D01*
X283801939Y-154617672D01*
X283768060Y-154539515D01*
X283651330Y-154441567D01*
X283568477Y-154421775D01*
X283514808Y-154426470D01*
X283436651Y-154460349D01*
X283314215Y-154606262D01*
X283294423Y-154689114D01*
X283299119Y-154742784D01*
X283332997Y-154820941D01*
X283449728Y-154918890D01*
X283532580Y-154938681D01*
X283586250Y-154933986D01*
X283664407Y-154900108D01*
X286684778Y-153671197D02*
X286170548Y-154284032D01*
X285937087Y-154088135D01*
X285903208Y-154009978D01*
X285898513Y-153956308D01*
X285918305Y-153873456D01*
X285991766Y-153785908D01*
X286069923Y-153752030D01*
X286123593Y-153747334D01*
X286206445Y-153767126D01*
X286439906Y-153963023D01*
X285440982Y-153671853D02*
X285382616Y-153622879D01*
X285348738Y-153544722D01*
X285344043Y-153491052D01*
X285363834Y-153408200D01*
X285432600Y-153266982D01*
X285555036Y-153121069D01*
X285682167Y-153028826D01*
X285760324Y-152994947D01*
X285813994Y-152990252D01*
X285896846Y-153010044D01*
X285955212Y-153059018D01*
X285989090Y-153137175D01*
X285993785Y-153190845D01*
X285973994Y-153273697D01*
X285905228Y-153414915D01*
X285782792Y-153560828D01*
X285655661Y-153653072D01*
X285577504Y-153686950D01*
X285523834Y-153691645D01*
X285440982Y-153671853D01*
X284682233Y-153035188D02*
X284974059Y-153280059D01*
X285248113Y-153012720D01*
X285194444Y-153017415D01*
X285111591Y-152997624D01*
X284965678Y-152875188D01*
X284931800Y-152797031D01*
X284927104Y-152743361D01*
X284946896Y-152660509D01*
X285069332Y-152514596D01*
X285147489Y-152480717D01*
X285201158Y-152476022D01*
X285284011Y-152495814D01*
X285429924Y-152618249D01*
X285463802Y-152696406D01*
X285468498Y-152750076D01*
X288317458Y-151725444D02*
X287803228Y-152338279D01*
X287569767Y-152142382D01*
X287535888Y-152064225D01*
X287531193Y-152010555D01*
X287550985Y-151927703D01*
X287624446Y-151840155D01*
X287702603Y-151806277D01*
X287756273Y-151801581D01*
X287839125Y-151821373D01*
X288072586Y-152017270D01*
X287073662Y-151726100D02*
X287015296Y-151677126D01*
X286981418Y-151598969D01*
X286976723Y-151545299D01*
X286996514Y-151462447D01*
X287065280Y-151321229D01*
X287187716Y-151175316D01*
X287314847Y-151083073D01*
X287393004Y-151049194D01*
X287446674Y-151044499D01*
X287529526Y-151064291D01*
X287587892Y-151113265D01*
X287621770Y-151191422D01*
X287626465Y-151245092D01*
X287606674Y-151327944D01*
X287537908Y-151469162D01*
X287415472Y-151615075D01*
X287288341Y-151707319D01*
X287210184Y-151741197D01*
X287156514Y-151745892D01*
X287073662Y-151726100D01*
X286515506Y-150909643D02*
X286858326Y-150501086D01*
X286465522Y-151265540D02*
X286978742Y-150950236D01*
X286599368Y-150631903D01*
X289950139Y-149779691D02*
X289435909Y-150392526D01*
X289202448Y-150196629D01*
X289168569Y-150118472D01*
X289163874Y-150064802D01*
X289183666Y-149981950D01*
X289257127Y-149894402D01*
X289335284Y-149860524D01*
X289388954Y-149855828D01*
X289471806Y-149875620D01*
X289705267Y-150071517D01*
X288706343Y-149780347D02*
X288647977Y-149731373D01*
X288614099Y-149653216D01*
X288609404Y-149599546D01*
X288629195Y-149516694D01*
X288697961Y-149375476D01*
X288820397Y-149229563D01*
X288947528Y-149137320D01*
X289025685Y-149103441D01*
X289079355Y-149098746D01*
X289162207Y-149118538D01*
X289220573Y-149167512D01*
X289254451Y-149245669D01*
X289259146Y-149299339D01*
X289239355Y-149382191D01*
X289170589Y-149523409D01*
X289048153Y-149669322D01*
X288921022Y-149761566D01*
X288842865Y-149795444D01*
X288789195Y-149800139D01*
X288706343Y-149780347D01*
X288297786Y-149437527D02*
X287918411Y-149119195D01*
X288318587Y-149057143D01*
X288231039Y-148983682D01*
X288197161Y-148905525D01*
X288192465Y-148851855D01*
X288212257Y-148769003D01*
X288334693Y-148623090D01*
X288412850Y-148589211D01*
X288466519Y-148584516D01*
X288549372Y-148604308D01*
X288724468Y-148751230D01*
X288758346Y-148829387D01*
X288763041Y-148883057D01*
X291582819Y-147833938D02*
X291068589Y-148446773D01*
X290835128Y-148250876D01*
X290801249Y-148172719D01*
X290796554Y-148119049D01*
X290816346Y-148036197D01*
X290889807Y-147948649D01*
X290967964Y-147914771D01*
X291021634Y-147910075D01*
X291104486Y-147929867D01*
X291337947Y-148125764D01*
X290339023Y-147834594D02*
X290280657Y-147785620D01*
X290246779Y-147707463D01*
X290242084Y-147653793D01*
X290261875Y-147570941D01*
X290330641Y-147429723D01*
X290453077Y-147283810D01*
X290580208Y-147191567D01*
X290658365Y-147157688D01*
X290712035Y-147152993D01*
X290794887Y-147172785D01*
X290853253Y-147221759D01*
X290887131Y-147299916D01*
X290891826Y-147353586D01*
X290872035Y-147436438D01*
X290803269Y-147577656D01*
X290680833Y-147723569D01*
X290553702Y-147815813D01*
X290475545Y-147849691D01*
X290421875Y-147854386D01*
X290339023Y-147834594D01*
X289950257Y-147408922D02*
X289896587Y-147413617D01*
X289813735Y-147393826D01*
X289667822Y-147271390D01*
X289633944Y-147193233D01*
X289629248Y-147139563D01*
X289649040Y-147056711D01*
X289698014Y-146998346D01*
X289800658Y-146935285D01*
X290444696Y-146878939D01*
X290065321Y-146560606D01*
X292448522Y-146239210D02*
X292482400Y-146317367D01*
X292569948Y-146390828D01*
X292681983Y-146435107D01*
X292789323Y-146425716D01*
X292867479Y-146391838D01*
X292994611Y-146299594D01*
X293068072Y-146212046D01*
X293136838Y-146070829D01*
X293156630Y-145987976D01*
X293147239Y-145880637D01*
X293084178Y-145777992D01*
X293025813Y-145729018D01*
X292913778Y-145684739D01*
X292860108Y-145689435D01*
X292688698Y-145893713D01*
X292805428Y-145991662D01*
X292646438Y-145410685D02*
X292132208Y-146023521D01*
X292296247Y-145116839D01*
X291782016Y-145729675D01*
X292004420Y-144871968D02*
X291490190Y-145484804D01*
X291344277Y-145362368D01*
X291281216Y-145259724D01*
X291271825Y-145152384D01*
X291291617Y-145069532D01*
X291360383Y-144928314D01*
X291433844Y-144840766D01*
X291560975Y-144748523D01*
X291639132Y-144714644D01*
X291746472Y-144705253D01*
X291858507Y-144749532D01*
X292004420Y-144871968D01*
X294081202Y-144293457D02*
X294115080Y-144371614D01*
X294202628Y-144445075D01*
X294314663Y-144489354D01*
X294422003Y-144479963D01*
X294500159Y-144446085D01*
X294627291Y-144353841D01*
X294700752Y-144266293D01*
X294769518Y-144125076D01*
X294789310Y-144042223D01*
X294779919Y-143934884D01*
X294716858Y-143832239D01*
X294658493Y-143783265D01*
X294546458Y-143738986D01*
X294492788Y-143743682D01*
X294321378Y-143947960D01*
X294438108Y-144045909D01*
X294279118Y-143464932D02*
X293764888Y-144077768D01*
X293928927Y-143171086D01*
X293414696Y-143783922D01*
X293637100Y-142926215D02*
X293122870Y-143539051D01*
X292976957Y-143416615D01*
X292913896Y-143313971D01*
X292904505Y-143206631D01*
X292924297Y-143123779D01*
X292993063Y-142982561D01*
X293066524Y-142895013D01*
X293193655Y-142802770D01*
X293271812Y-142768891D01*
X293379152Y-142759500D01*
X293491187Y-142803779D01*
X293637100Y-142926215D01*
X296480861Y-141996680D02*
X295966631Y-142609515D01*
X295733170Y-142413618D01*
X295699291Y-142335461D01*
X295694596Y-142281791D01*
X295714388Y-142198939D01*
X295787849Y-142111391D01*
X295866006Y-142077513D01*
X295919676Y-142072817D01*
X296002528Y-142092609D01*
X296235989Y-142288506D01*
X295237065Y-141997336D02*
X295178699Y-141948362D01*
X295144821Y-141870205D01*
X295140126Y-141816535D01*
X295159917Y-141733683D01*
X295228683Y-141592465D01*
X295351119Y-141446552D01*
X295478250Y-141354309D01*
X295556407Y-141320430D01*
X295610077Y-141315735D01*
X295692929Y-141335527D01*
X295751295Y-141384501D01*
X295785173Y-141462658D01*
X295789868Y-141516328D01*
X295770077Y-141599180D01*
X295701311Y-141740398D01*
X295578875Y-141886311D01*
X295451744Y-141978555D01*
X295373587Y-142012433D01*
X295319917Y-142017128D01*
X295237065Y-141997336D01*
X294653412Y-141507594D02*
X294595046Y-141458619D01*
X294561168Y-141380462D01*
X294556473Y-141326793D01*
X294576264Y-141243940D01*
X294645030Y-141102722D01*
X294767466Y-140956809D01*
X294894597Y-140864566D01*
X294972754Y-140830688D01*
X295026424Y-140825992D01*
X295109277Y-140845784D01*
X295167642Y-140894758D01*
X295201520Y-140972915D01*
X295206215Y-141026585D01*
X295186424Y-141109437D01*
X295117658Y-141250655D01*
X294995222Y-141396568D01*
X294868091Y-141488812D01*
X294789934Y-141522690D01*
X294736264Y-141527385D01*
X294653412Y-141507594D01*
X298113541Y-140050927D02*
X297599311Y-140663762D01*
X297365850Y-140467865D01*
X297331971Y-140389708D01*
X297327276Y-140336038D01*
X297347068Y-140253186D01*
X297420529Y-140165638D01*
X297498686Y-140131760D01*
X297552356Y-140127064D01*
X297635208Y-140146856D01*
X297868669Y-140342753D01*
X296869745Y-140051583D02*
X296811379Y-140002609D01*
X296777501Y-139924452D01*
X296772806Y-139870782D01*
X296792597Y-139787930D01*
X296861363Y-139646712D01*
X296983799Y-139500799D01*
X297110930Y-139408556D01*
X297189087Y-139374677D01*
X297242757Y-139369982D01*
X297325609Y-139389774D01*
X297383975Y-139438748D01*
X297417853Y-139516905D01*
X297422548Y-139570575D01*
X297402757Y-139653427D01*
X297333991Y-139794645D01*
X297211555Y-139940558D01*
X297084424Y-140032802D01*
X297006267Y-140066680D01*
X296952597Y-140071375D01*
X296869745Y-140051583D01*
X296596043Y-138777595D02*
X296946235Y-139071441D01*
X296771139Y-138924518D02*
X296256909Y-139537353D01*
X296388736Y-139498780D01*
X296496075Y-139489389D01*
X296578928Y-139509180D01*
X272800029Y-155283447D02*
X272285799Y-155896282D01*
X272052338Y-155700385D01*
X272018459Y-155622228D01*
X272013764Y-155568558D01*
X272033556Y-155485706D01*
X272107017Y-155398158D01*
X272185174Y-155364280D01*
X272238844Y-155359584D01*
X272321696Y-155379376D01*
X272555157Y-155575273D01*
X271866184Y-154499858D02*
X272216376Y-154793704D01*
X272041280Y-154646781D02*
X271527050Y-155259616D01*
X271658877Y-155221043D01*
X271766216Y-155211652D01*
X271849069Y-155231443D01*
X270972580Y-154794361D02*
X270914214Y-154745386D01*
X270880336Y-154667229D01*
X270875641Y-154613560D01*
X270895432Y-154530707D01*
X270964198Y-154389489D01*
X271086634Y-154243576D01*
X271213765Y-154151333D01*
X271291922Y-154117455D01*
X271345592Y-154112759D01*
X271428445Y-154132551D01*
X271486810Y-154181525D01*
X271520688Y-154259682D01*
X271525383Y-154313352D01*
X271505592Y-154396204D01*
X271436826Y-154537422D01*
X271314390Y-154683335D01*
X271187259Y-154775579D01*
X271109102Y-154809457D01*
X271055432Y-154814152D01*
X270972580Y-154794361D01*
X274432709Y-153337694D02*
X273918479Y-153950529D01*
X273685018Y-153754632D01*
X273651139Y-153676475D01*
X273646444Y-153622805D01*
X273666236Y-153539953D01*
X273739697Y-153452405D01*
X273817854Y-153418527D01*
X273871524Y-153413831D01*
X273954376Y-153433623D01*
X274187837Y-153629520D01*
X273498864Y-152554105D02*
X273849056Y-152847951D01*
X273673960Y-152701028D02*
X273159730Y-153313863D01*
X273291557Y-153275290D01*
X273398896Y-153265899D01*
X273481749Y-153285690D01*
X272459346Y-152726172D02*
X272576077Y-152824120D01*
X272658930Y-152843912D01*
X272712599Y-152839217D01*
X272844426Y-152800643D01*
X272971557Y-152708399D01*
X273167454Y-152474938D01*
X273187246Y-152392086D01*
X273182551Y-152338416D01*
X273148672Y-152260259D01*
X273031942Y-152162311D01*
X272949089Y-152142519D01*
X272895420Y-152147214D01*
X272817263Y-152181093D01*
X272694827Y-152327006D01*
X272675035Y-152409858D01*
X272679731Y-152463528D01*
X272713609Y-152541685D01*
X272830340Y-152639634D01*
X272913192Y-152659425D01*
X272966862Y-152654730D01*
X273045019Y-152620852D01*
X276065390Y-151391942D02*
X275551160Y-152004777D01*
X275317699Y-151808880D01*
X275283820Y-151730723D01*
X275279125Y-151677053D01*
X275298917Y-151594201D01*
X275372378Y-151506653D01*
X275450535Y-151472775D01*
X275504205Y-151468079D01*
X275587057Y-151487871D01*
X275820518Y-151683768D01*
X275131545Y-150608353D02*
X275481737Y-150902199D01*
X275306641Y-150755276D02*
X274792411Y-151368111D01*
X274924238Y-151329538D01*
X275031577Y-151320147D01*
X275114430Y-151339938D01*
X274263438Y-150576141D02*
X274606258Y-150167584D01*
X274213454Y-150932038D02*
X274726674Y-150616734D01*
X274347300Y-150298401D01*
X277698070Y-149446189D02*
X277183840Y-150059024D01*
X276950379Y-149863127D01*
X276916500Y-149784970D01*
X276911805Y-149731300D01*
X276931597Y-149648448D01*
X277005058Y-149560900D01*
X277083215Y-149527022D01*
X277136885Y-149522326D01*
X277219737Y-149542118D01*
X277453198Y-149738015D01*
X276764225Y-148662600D02*
X277114417Y-148956446D01*
X276939321Y-148809523D02*
X276425091Y-149422358D01*
X276556918Y-149383785D01*
X276664257Y-149374394D01*
X276747110Y-149394185D01*
X275695525Y-148810180D02*
X275987351Y-149055051D01*
X276261405Y-148787712D01*
X276207736Y-148792407D01*
X276124883Y-148772616D01*
X275978970Y-148650180D01*
X275945092Y-148572023D01*
X275940396Y-148518353D01*
X275960188Y-148435501D01*
X276082624Y-148289588D01*
X276160781Y-148255709D01*
X276214450Y-148251014D01*
X276297303Y-148270806D01*
X276443216Y-148393241D01*
X276477094Y-148471398D01*
X276481790Y-148525068D01*
X279330751Y-147500436D02*
X278816521Y-148113271D01*
X278583060Y-147917374D01*
X278549181Y-147839217D01*
X278544486Y-147785547D01*
X278564278Y-147702695D01*
X278637739Y-147615147D01*
X278715896Y-147581269D01*
X278769566Y-147576573D01*
X278852418Y-147596365D01*
X279085879Y-147792262D01*
X278396906Y-146716847D02*
X278747098Y-147010693D01*
X278572002Y-146863770D02*
X278057772Y-147476605D01*
X278189599Y-147438032D01*
X278296938Y-147428641D01*
X278379791Y-147448432D01*
X277752869Y-146773193D02*
X277786747Y-146851350D01*
X277791442Y-146905020D01*
X277771651Y-146987872D01*
X277747164Y-147017055D01*
X277669007Y-147050933D01*
X277615337Y-147055628D01*
X277532484Y-147035837D01*
X277415754Y-146937888D01*
X277381876Y-146859731D01*
X277377180Y-146806061D01*
X277396972Y-146723209D01*
X277421459Y-146694026D01*
X277499616Y-146660148D01*
X277553286Y-146655453D01*
X277636138Y-146675244D01*
X277752869Y-146773193D01*
X277835721Y-146792985D01*
X277889391Y-146788289D01*
X277967548Y-146754411D01*
X278065496Y-146637680D01*
X278085288Y-146554828D01*
X278080593Y-146501158D01*
X278046714Y-146423001D01*
X277929984Y-146325053D01*
X277847131Y-146305261D01*
X277793462Y-146309956D01*
X277715305Y-146343835D01*
X277617356Y-146460565D01*
X277597564Y-146543418D01*
X277602260Y-146597087D01*
X277636138Y-146675244D01*
X280963431Y-145554683D02*
X280449201Y-146167518D01*
X280215740Y-145971621D01*
X280181861Y-145893464D01*
X280177166Y-145839794D01*
X280196958Y-145756942D01*
X280270419Y-145669394D01*
X280348576Y-145635516D01*
X280402246Y-145630820D01*
X280485098Y-145650612D01*
X280718559Y-145846509D01*
X280029586Y-144771094D02*
X280379778Y-145064940D01*
X280204682Y-144918017D02*
X279690452Y-145530852D01*
X279822279Y-145492279D01*
X279929618Y-145482888D01*
X280012471Y-145502679D01*
X279737760Y-144526222D02*
X279621029Y-144428274D01*
X279538177Y-144408482D01*
X279484507Y-144413178D01*
X279352680Y-144451751D01*
X279225549Y-144543995D01*
X279029652Y-144777456D01*
X279009860Y-144860308D01*
X279014556Y-144913978D01*
X279048434Y-144992135D01*
X279165164Y-145090084D01*
X279248017Y-145109875D01*
X279301687Y-145105180D01*
X279379844Y-145071302D01*
X279502279Y-144925388D01*
X279522071Y-144842536D01*
X279517375Y-144788866D01*
X279483497Y-144710709D01*
X279366767Y-144612761D01*
X279283914Y-144592969D01*
X279230244Y-144597665D01*
X279152088Y-144631543D01*
X282596112Y-143608930D02*
X282081882Y-144221765D01*
X281848421Y-144025868D01*
X281814542Y-143947711D01*
X281809847Y-143894041D01*
X281829639Y-143811189D01*
X281903100Y-143723641D01*
X281981257Y-143689763D01*
X282034927Y-143685067D01*
X282117779Y-143704859D01*
X282351240Y-143900756D01*
X281547203Y-143673657D02*
X281493533Y-143678352D01*
X281410681Y-143658561D01*
X281264768Y-143536125D01*
X281230890Y-143457968D01*
X281226194Y-143404298D01*
X281245986Y-143321446D01*
X281294960Y-143263081D01*
X281397604Y-143200020D01*
X282041642Y-143143674D01*
X281662267Y-142825341D01*
X280768663Y-143119844D02*
X280710297Y-143070869D01*
X280676419Y-142992712D01*
X280671724Y-142939043D01*
X280691515Y-142856190D01*
X280760281Y-142714972D01*
X280882717Y-142569059D01*
X281009848Y-142476816D01*
X281088005Y-142442938D01*
X281141675Y-142438242D01*
X281224528Y-142458034D01*
X281282893Y-142507008D01*
X281316771Y-142585165D01*
X281321466Y-142638835D01*
X281301675Y-142721687D01*
X281232909Y-142862905D01*
X281110473Y-143008818D01*
X280983342Y-143101062D01*
X280905185Y-143134940D01*
X280851515Y-143139635D01*
X280768663Y-143119844D01*
X284228792Y-141663177D02*
X283714562Y-142276012D01*
X283481101Y-142080115D01*
X283447222Y-142001958D01*
X283442527Y-141948288D01*
X283462319Y-141865436D01*
X283535780Y-141777888D01*
X283613937Y-141744010D01*
X283667607Y-141739314D01*
X283750459Y-141759106D01*
X283983920Y-141955003D01*
X283179883Y-141727904D02*
X283126213Y-141732599D01*
X283043361Y-141712808D01*
X282897448Y-141590372D01*
X282863570Y-141512215D01*
X282858874Y-141458545D01*
X282878666Y-141375693D01*
X282927640Y-141317328D01*
X283030284Y-141254267D01*
X283674322Y-141197921D01*
X283294947Y-140879588D01*
X282711294Y-140389845D02*
X283061486Y-140683691D01*
X282886390Y-140536768D02*
X282372160Y-141149603D01*
X282503987Y-141111030D01*
X282611326Y-141101639D01*
X282694179Y-141121430D01*
X285420199Y-140391477D02*
X285730151Y-139607231D01*
X285011642Y-140048657D01*
X284922428Y-139028931D02*
X284976098Y-139024235D01*
X285088133Y-139068514D01*
X285146498Y-139117489D01*
X285209559Y-139220133D01*
X285218950Y-139327472D01*
X285199158Y-139410325D01*
X285130392Y-139551542D01*
X285056931Y-139639090D01*
X284929800Y-139731334D01*
X284851643Y-139765212D01*
X284744303Y-139774603D01*
X284632268Y-139730324D01*
X284573903Y-139681350D01*
X284510842Y-139578706D01*
X284506146Y-139525036D01*
X284309592Y-138514701D02*
X284363262Y-138510005D01*
X284475297Y-138554284D01*
X284533662Y-138603258D01*
X284596723Y-138705903D01*
X284606114Y-138813242D01*
X284586323Y-138896095D01*
X284517557Y-139037312D01*
X284444095Y-139124860D01*
X284316964Y-139217104D01*
X284238807Y-139250982D01*
X284131467Y-139260373D01*
X284019432Y-139216094D01*
X283961067Y-139167120D01*
X283898006Y-139064476D01*
X283893311Y-139010806D01*
X287085597Y-137428851D02*
X287045004Y-137892087D01*
X287435789Y-137722696D02*
X286921558Y-138335532D01*
X286688097Y-138139635D01*
X286654219Y-138061478D01*
X286649524Y-138007808D01*
X286669315Y-137924956D01*
X286742777Y-137837408D01*
X286820934Y-137803529D01*
X286874603Y-137798834D01*
X286957456Y-137818626D01*
X287190917Y-138014523D01*
X286827649Y-137262136D02*
X286764588Y-137159492D01*
X286618674Y-137037056D01*
X286535822Y-137017265D01*
X286482152Y-137021960D01*
X286403995Y-137055838D01*
X286355021Y-137114203D01*
X286335229Y-137197056D01*
X286339925Y-137250726D01*
X286373803Y-137328883D01*
X286466046Y-137456014D01*
X286499925Y-137534171D01*
X286504620Y-137587841D01*
X286484828Y-137670693D01*
X286435854Y-137729058D01*
X286357697Y-137762936D01*
X286304027Y-137767632D01*
X286221175Y-137747840D01*
X286075262Y-137625405D01*
X286012201Y-137522761D01*
X285812618Y-137405020D02*
X285462426Y-137111175D01*
X286151752Y-136645262D02*
X285637522Y-137258097D01*
X288359856Y-136176943D02*
X288393734Y-136255100D01*
X288481282Y-136328561D01*
X288593317Y-136372840D01*
X288700657Y-136363449D01*
X288778813Y-136329571D01*
X288905945Y-136237327D01*
X288979406Y-136149779D01*
X289048172Y-136008562D01*
X289067964Y-135925709D01*
X289058573Y-135818370D01*
X288995512Y-135715725D01*
X288937147Y-135666751D01*
X288825112Y-135622472D01*
X288771442Y-135627168D01*
X288600032Y-135831446D01*
X288716762Y-135929395D01*
X288557772Y-135348418D02*
X288043542Y-135961254D01*
X288207581Y-135054572D01*
X287693350Y-135667408D01*
X287915754Y-134809701D02*
X287401524Y-135422537D01*
X287255611Y-135300101D01*
X287192550Y-135197457D01*
X287183159Y-135090117D01*
X287202951Y-135007265D01*
X287271717Y-134866047D01*
X287345178Y-134778499D01*
X287472309Y-134686256D01*
X287550466Y-134652377D01*
X287657806Y-134642986D01*
X287769841Y-134687265D01*
X287915754Y-134809701D01*
X290438506Y-133610807D02*
X290397913Y-134074043D01*
X290788698Y-133904653D02*
X290274467Y-134517488D01*
X290041006Y-134321591D01*
X290007128Y-134243434D01*
X290002433Y-134189764D01*
X290022224Y-134106912D01*
X290095686Y-134019364D01*
X290173843Y-133985486D01*
X290227512Y-133980790D01*
X290310365Y-134000582D01*
X290543826Y-134196479D01*
X290058122Y-133590006D02*
X289766295Y-133345134D01*
X290263410Y-133463884D02*
X289544901Y-133905310D01*
X289854853Y-133121064D01*
X289194710Y-133611464D02*
X289563026Y-132876193D01*
X289078989Y-133215984D01*
X289329565Y-132680295D01*
X288669422Y-133170695D01*
%TO.C,*%
%TO.C,MCU1*%
X287779020Y-133509534D02*
X285833268Y-131876854D01*
X289411701Y-131563781D02*
X287465948Y-129931101D01*
X289411701Y-131563781D02*
X287779020Y-133509534D01*
X302718899Y-139414112D02*
X289098629Y-127985348D01*
X281494052Y-164708899D02*
X302718899Y-139414112D01*
X267873782Y-153280135D02*
X281494052Y-164708899D01*
X289098629Y-127985348D02*
X267873782Y-153280135D01*
%TD*%
D11*
%TO.C,MCU1*%
X281337516Y-162919682D03*
X282970196Y-160973930D03*
X284602877Y-159028177D03*
X286235557Y-157082424D03*
X287868238Y-155136671D03*
X289500918Y-153190918D03*
X291133599Y-151245165D03*
X292766279Y-149299412D03*
X294398960Y-147353659D03*
X296031641Y-145407906D03*
X297664321Y-143462154D03*
X299297002Y-141516401D03*
X269662998Y-153123599D03*
X271295679Y-151177846D03*
X272928359Y-149232094D03*
X274561040Y-147286341D03*
X276193721Y-145340588D03*
X277826401Y-143394835D03*
X279459082Y-141449082D03*
X281091762Y-139503329D03*
X282724443Y-137557576D03*
X284357123Y-135611823D03*
X285989804Y-133666070D03*
D12*
X287622484Y-131720318D03*
%TD*%
M02*
