%TF.GenerationSoftware,KiCad,Pcbnew,(6.0.5)*%
%TF.CreationDate,2022-05-06T01:30:31+03:00*%
%TF.ProjectId,main,6d61696e-2e6b-4696-9361-645f70636258,v1.0.0*%
%TF.SameCoordinates,Original*%
%TF.FileFunction,Profile,NP*%
%FSLAX46Y46*%
G04 Gerber Fmt 4.6, Leading zero omitted, Abs format (unit mm)*
G04 Created by KiCad (PCBNEW (6.0.5)) date 2022-05-06 01:30:31*
%MOMM*%
%LPD*%
G01*
G04 APERTURE LIST*
%TA.AperFunction,Profile*%
%ADD10C,0.150000*%
%TD*%
G04 APERTURE END LIST*
D10*
X240780487Y-92126526D02*
G75*
G03*
X246986649Y-93798037I3235708J-343325D01*
G01*
X249399972Y-87403359D02*
X246986649Y-93798037D01*
X268188757Y-94242729D02*
G75*
G03*
X274157787Y-99027223I4214285J-858013D01*
G01*
X291429401Y-110766916D02*
X285620573Y-120764633D01*
X285620574Y-120764633D02*
G75*
G03*
X286718649Y-124862709I2598076J-1500000D01*
G01*
X302178924Y-137669884D02*
X286718649Y-124862709D01*
X303276999Y-141767960D02*
G75*
G03*
X302178924Y-137669884I-2598076J1500000D01*
G01*
X281394658Y-166783082D02*
G75*
G03*
X283273278Y-164924494I-22198090J24316071D01*
G01*
X283273278Y-164924494D02*
X303224851Y-141845565D01*
X264064142Y-181913861D02*
X281394658Y-166783082D01*
X259643442Y-182609496D02*
G75*
G03*
X264064142Y-181913861I1809630J2894356D01*
G01*
X220436243Y-148967340D02*
G75*
G03*
X214587967Y-146980582I-6399907J-9237991D01*
G01*
X231893758Y-156644956D02*
X220436243Y-148967340D01*
X259638317Y-182617694D02*
G75*
G03*
X231893758Y-156644956I-99689472J-78685142D01*
G01*
X196943825Y-146995317D02*
X214587967Y-146980582D01*
X196943825Y-146995317D02*
G75*
G03*
X194822505Y-148664766I13512J-2199643D01*
G01*
X192701185Y-150327773D02*
G75*
G03*
X194822505Y-148664766I0J2184474D01*
G01*
X177220000Y-150320000D02*
X192608353Y-150325380D01*
X220193235Y-91788755D02*
X221009396Y-88381561D01*
X213360000Y-94274872D02*
X216717867Y-94222235D01*
X216717867Y-94222285D02*
G75*
G03*
X220193235Y-91788755I26374J3660718D01*
G01*
X174220000Y-147320000D02*
X174220000Y-117274872D01*
X177220000Y-114274872D02*
X190220000Y-114274872D01*
X193220000Y-111274872D02*
X193220000Y-97274872D01*
X196220000Y-94274872D02*
X213360000Y-94274872D01*
X234250826Y-122702319D02*
X234413411Y-122730988D01*
X224484764Y-85948081D02*
X238272073Y-88379156D01*
X236746952Y-116319636D02*
X236746952Y-116319636D01*
X253245110Y-85610341D02*
X266400807Y-90398623D01*
X274813376Y-137546717D02*
X274813376Y-137546717D01*
X276474918Y-98668840D02*
X290331325Y-106668840D01*
X282179401Y-126788386D02*
X281313376Y-126288386D01*
X265724918Y-117288386D02*
X265724918Y-117288386D01*
X291429401Y-110766916D02*
G75*
G03*
X290331325Y-106668840I-2598076J1500000D01*
G01*
X276474918Y-98668841D02*
G75*
G03*
X274157787Y-99027223I-915454J-1751035D01*
G01*
X268193825Y-94243761D02*
G75*
G03*
X266400807Y-90398623I-2819078J1026060D01*
G01*
X253245110Y-85610341D02*
G75*
G03*
X249399972Y-87403359I-1026060J-2819078D01*
G01*
X240778923Y-92126360D02*
G75*
G03*
X238272073Y-88379156I-3049090J672317D01*
G01*
X224484764Y-85948081D02*
G75*
G03*
X221009396Y-88381561I-520944J-2954424D01*
G01*
X196220000Y-94274872D02*
G75*
G03*
X193220000Y-97274872I0J-3000000D01*
G01*
X190220000Y-114274872D02*
G75*
G03*
X193220000Y-111274872I0J3000000D01*
G01*
X177220000Y-114274872D02*
G75*
G03*
X174220000Y-117274872I0J-3000000D01*
G01*
X174220000Y-147320000D02*
G75*
G03*
X177220000Y-150320000I3000000J0D01*
G01*
M02*
