M48
; DRILL file {KiCad (6.0.5)} date Fri 06 May 2022 01:30:26 AM EEST
; FORMAT={-:-/ absolute / inch / decimal}
; #@! TF.CreationDate,2022-05-06T01:30:26+03:00
; #@! TF.GenerationSoftware,Kicad,Pcbnew,(6.0.5)
; #@! TF.FileFunction,NonPlated,1,2,NPTH
FMAT,2
INCH
; #@! TA.AperFunction,NonPlated,NPTH,ComponentDrill
T1C0.0354
; #@! TA.AperFunction,NonPlated,NPTH,ComponentDrill
T2C0.0670
; #@! TA.AperFunction,NonPlated,NPTH,ComponentDrill
T3C0.1181
; #@! TA.AperFunction,NonPlated,NPTH,ComponentDrill
T4C0.1350
%
G90
G05
T1
X8.9368Y-5.7879
X8.9368Y-5.7879
X9.0272Y-5.8638
X9.0272Y-5.8638
T2
X7.0362Y-4.873
X7.0362Y-4.873
X7.0362Y-5.5423
X7.0362Y-5.5423
X7.4693Y-4.873
X7.4693Y-4.873
X7.4693Y-5.5423
X7.4693Y-5.5423
X7.7843Y-4.0856
X7.7843Y-4.0856
X7.7843Y-4.7549
X7.7843Y-4.7549
X7.7843Y-5.4242
X7.7843Y-5.4242
X8.2173Y-4.0856
X8.2173Y-4.0856
X8.2173Y-4.7549
X8.2173Y-4.7549
X8.2173Y-5.4242
X8.2173Y-5.4242
X8.5988Y-5.0806
X8.5988Y-5.0806
X8.715Y-4.4215
X8.715Y-4.4215
X8.8312Y-3.7624
X8.8312Y-3.7624
X9.0252Y-5.1558
X9.0252Y-5.1558
X9.1415Y-4.4967
X9.1415Y-4.4967
X9.2577Y-3.8376
X9.2577Y-3.8376
X9.44Y-5.0
X9.44Y-5.0
X9.4888Y-5.9634
X9.4888Y-5.9634
X9.6689Y-4.3711
X9.6689Y-4.3711
X9.83Y-6.23
X9.83Y-6.23
X9.847Y-5.1481
X9.847Y-5.1481
X9.8979Y-3.7421
X9.8979Y-3.7421
X10.0759Y-4.5192
X10.0759Y-4.5192
X10.1479Y-5.4367
X10.1479Y-5.4367
X10.164Y-6.552
X10.164Y-6.552
X10.3048Y-3.8903
X10.3048Y-3.8903
X10.4537Y-6.8738
X10.4537Y-6.8738
X10.4825Y-4.857
X10.4825Y-4.857
X10.5229Y-5.6532
X10.5229Y-5.6532
X10.8172Y-4.2774
X10.8172Y-4.2774
X10.8576Y-5.0736
X10.8576Y-5.0736
X11.1922Y-4.4939
X11.1922Y-4.4939
T3
X7.0559Y-4.7254
X7.0559Y-5.3947
X7.2528Y-4.6388
X7.2528Y-4.6388
X7.2528Y-5.3081
X7.2528Y-5.3081
X7.4496Y-4.7254
X7.4496Y-5.3947
X7.8039Y-3.938
X7.8039Y-4.6073
X7.8039Y-5.2766
X8.0008Y-3.8514
X8.0008Y-3.8514
X8.0008Y-4.5207
X8.0008Y-4.5207
X8.0008Y-5.19
X8.0008Y-5.19
X8.1976Y-3.938
X8.1976Y-4.6073
X8.1976Y-5.2766
X8.6438Y-4.9386
X8.76Y-4.2795
X8.8527Y-4.8875
X8.8527Y-4.8875
X8.8762Y-3.6204
X8.9689Y-4.2284
X8.9689Y-4.2284
X9.0315Y-5.007
X9.0851Y-3.5693
X9.0851Y-3.5693
X9.1477Y-4.3479
X9.2639Y-3.6888
X9.509Y-4.868
X9.5952Y-5.8592
X9.7236Y-4.8539
X9.7236Y-4.8539
X9.7379Y-4.2391
X9.8036Y-5.9121
X9.8036Y-5.9121
X9.879Y-5.0027
X9.9054Y-6.1016
X9.9525Y-4.225
X9.9525Y-4.225
X9.9668Y-3.6101
X10.1079Y-4.3737
X10.1814Y-3.5961
X10.1814Y-3.5961
X10.2387Y-5.3186
X10.2869Y-6.4678
X10.3368Y-3.7448
X10.4525Y-5.3421
X10.4525Y-5.3421
X10.4829Y-6.5561
X10.4829Y-6.5561
X10.5503Y-6.7604
X10.5734Y-4.739
X10.5797Y-5.5155
X10.7872Y-4.7624
X10.7872Y-4.7624
X10.908Y-4.1594
X10.9143Y-4.9359
X11.1218Y-4.1828
X11.1218Y-4.1828
X11.249Y-4.3562
T4
X7.2528Y-4.873
X7.2528Y-4.873
X7.2528Y-5.5423
X7.2528Y-5.5423
X8.0008Y-4.0856
X8.0008Y-4.0856
X8.0008Y-4.7549
X8.0008Y-4.7549
X8.0008Y-5.4242
X8.0008Y-5.4242
X8.812Y-5.1182
X8.812Y-5.1182
X8.9282Y-4.4591
X8.9282Y-4.4591
X9.0444Y-3.8
X9.0444Y-3.8
X9.6435Y-5.0741
X9.6435Y-5.0741
X9.6594Y-6.0967
X9.6594Y-6.0967
X9.8724Y-4.4451
X9.8724Y-4.4451
X10.1013Y-3.8162
X10.1013Y-3.8162
X10.3089Y-6.7129
X10.3089Y-6.7129
X10.3354Y-5.5449
X10.3354Y-5.5449
X10.67Y-4.9653
X10.67Y-4.9653
X11.0047Y-4.3857
X11.0047Y-4.3857
T0
M30
